<svg width="152" height="100" viewBox="0 0 152 100" fill="none" xmlns="http://www.w3.org/2000/svg">
<path fill-rule="evenodd" clip-rule="evenodd" d="M63.6936 0H137.213C149.92 0 155.111 10.9174 149.205 21.6637L142.318 34.1919L134.116 34.1608L112.165 34.0207L77.6147 75.4727C76.4553 76.8656 74.899 77.5893 73.0937 77.5971L60.3476 77.6282C58.5267 77.6282 56.9704 76.9357 55.7176 75.6128C54.4726 74.2899 53.889 72.687 53.9901 70.8739L55.313 46.6812H32.4898L40.1313 32.7834C47.0412 32.7834 58.8769 32.799 67.9346 32.799C69.7554 32.799 71.3273 33.476 72.5801 34.7989C73.8329 36.1217 74.4243 37.7325 74.3232 39.5533L73.2649 58.9059L102.695 22.6675C103.768 21.3446 105.402 20.8855 107.107 20.9011L143.501 21.2201L144.645 19.1425C148.862 11.4777 145.524 5.2136 137.229 5.2136H63.7092C55.4141 5.2136 45.1815 11.4855 40.9639 19.1425L7.00545 80.8497C2.78787 88.5145 6.12614 94.7786 14.4212 94.7786H87.9408C96.2359 94.7786 106.469 88.5067 110.686 80.8497L132.809 40.635L138.754 40.6505L115.254 83.3632C110.25 92.4597 98.3991 100 87.933 100H14.4212C1.71403 100 -3.47623 89.0826 2.42993 78.3363L36.3806 16.6368C41.3841 7.53249 53.2353 0 63.6936 0Z" fill="url(#paint0_linear_82_15213)"/>
<defs>
<linearGradient id="paint0_linear_82_15213" x1="151.634" y1="0" x2="59.7153" y2="139.381" gradientUnits="userSpaceOnUse">
<stop stop-color="#FEF13C"/>
<stop offset="1" stop-color="#FF2D67"/>
</linearGradient>
</defs>
</svg>
