<svg width="796" height="100" viewBox="0 0 796 100" fill="none" xmlns="http://www.w3.org/2000/svg">
<path fill-rule="evenodd" clip-rule="evenodd" d="M63.6936 0H137.213C149.92 0 155.111 10.9174 149.205 21.6637L142.318 34.1919L134.116 34.1608L112.165 34.0207L77.6147 75.4727C76.4553 76.8656 74.899 77.5893 73.0937 77.5971L60.3476 77.6282C58.5267 77.6282 56.9704 76.9357 55.7176 75.6128C54.4726 74.2899 53.889 72.687 53.9901 70.8739L55.313 46.6812H32.4898L40.1313 32.7834C47.0412 32.7834 58.8769 32.799 67.9346 32.799C69.7554 32.799 71.3273 33.476 72.5801 34.7989C73.8329 36.1217 74.4243 37.7325 74.3232 39.5533L73.2649 58.9059L102.695 22.6675C103.768 21.3446 105.402 20.8855 107.107 20.9011L143.501 21.2201L144.645 19.1425C148.862 11.4777 145.524 5.2136 137.229 5.2136H63.7092C55.4141 5.2136 45.1815 11.4855 40.9639 19.1425L7.00545 80.8497C2.78787 88.5145 6.12614 94.7786 14.4212 94.7786H87.9408C96.2359 94.7786 106.469 88.5067 110.686 80.8497L132.809 40.635L138.754 40.6505L115.254 83.3632C110.25 92.4597 98.3991 100 87.933 100H14.4212C1.71403 100 -3.47623 89.0826 2.42993 78.3363L36.3806 16.6368C41.3841 7.53249 53.2353 0 63.6936 0Z" fill="#FF1A43"/>
<path d="M170.839 86C166.597 85.9686 164.657 84.0206 165.05 80.1481L170.548 21.4804H191.654L187.978 60.4011L227.511 25.0465C230.19 22.6586 233.269 21.4804 236.851 21.4804H252.607L187.012 80.1481C182.66 84.0206 178.356 85.9686 174.075 86H170.839Z" fill="black"/>
<path d="M221.683 86C219.256 86 217.779 85.0496 217.229 83.1566C216.962 81.9312 217.111 80.5644 217.701 79.072C217.96 78.4122 218.313 77.7053 218.761 76.9512L246.897 30.5292C248.327 28.1806 250.29 26.154 252.804 24.4024C255.71 22.4544 258.365 21.4804 260.792 21.4804H329.145L317.771 40.2063H259.732L257.352 44.1337H287.232C291.764 44.1337 295.636 46.7258 297.364 50.9125L302.329 62.9461H245.947L243.323 67.2819H301.355L290.028 86H221.683Z" fill="black"/>
<path d="M391.583 52.4756C389.824 55.4211 387.239 57.9268 383.846 60.0005C380.571 62.0899 377.429 63.1503 374.467 63.1503H359.355L371.278 86H350.919C345.342 86 340.574 82.9602 338.217 77.9095L331.329 63.1503L342.726 44.338H379.125L381.67 40.1592H341.037L313.247 86H294.521L328.147 30.5292C329.593 28.1491 331.564 26.1069 334.078 24.3553C336.968 22.4387 339.615 21.4804 342.043 21.4804H399.729C402.674 21.4804 404.544 22.5094 405.353 24.583C405.95 26.1226 405.855 27.8742 405.078 29.8536C404.795 30.5763 404.426 31.3146 403.962 32.0923L391.583 52.4756Z" fill="black"/>
<path d="M415.462 24.261C418.266 22.4073 420.874 21.4804 423.301 21.4804H439.694C462.638 21.4804 484.702 20.9227 507.536 21.0091C512.563 21.0248 517.959 21.0484 523.599 21.0719C522.468 21.8731 521.376 22.745 520.339 23.6719L501.904 40.1592H422.295L419.758 44.338H467.178C470.084 44.338 471.954 45.3669 472.747 47.4406C473.344 48.9723 473.25 50.7239 472.472 52.7034C472.189 53.426 471.828 54.1801 471.372 54.9498L458.97 75.3881C457.21 78.2865 454.657 80.7922 451.28 82.8973C447.949 84.971 444.807 86 441.878 86H375.779L383.265 73.6365C385.715 69.5755 389.792 67.2819 394.536 67.2819H445.145L447.674 63.1503H400.208C397.286 63.1503 395.44 62.1056 394.639 60.0476C394.018 58.5395 394.097 56.8193 394.866 54.8713C395.149 54.1486 395.542 53.3789 396.045 52.5698L409.406 30.5292C410.835 28.1806 412.807 26.1383 415.336 24.3553L415.462 24.261ZM549.198 21.1819C582.958 21.3311 618.101 21.4804 631.407 21.4804C636.607 21.4804 641.068 24.096 643.621 28.6283C646.174 33.1605 646.08 38.329 643.385 42.7748L628.493 67.2819H667.806L695.597 21.4804H714.322L681.631 75.3881C679.879 78.2865 677.366 80.7765 674.059 82.8502C670.712 84.9553 667.555 86 664.586 86H609.06C606.154 86 604.284 84.9867 603.428 82.9445C602.878 81.3735 602.98 79.6297 603.75 77.6739C604.048 76.9198 604.426 76.1579 604.881 75.3881L626.238 40.1592H592.777L564.971 86H546.213L574.012 40.1592H549.3L550.463 27.7957C550.706 25.1722 550.243 22.9414 549.198 21.1819Z" fill="black"/>
<path d="M539.78 21.4804C544.022 21.5118 545.962 23.4677 545.577 27.3322L540.071 86H518.973L522.641 47.0871L483.273 82.2847C480.492 84.7746 477.279 86 473.54 86H458.019L523.615 27.3322C527.959 23.4677 532.263 21.5118 536.544 21.4804H539.78Z" fill="black"/>
<path d="M719.381 24.261C722.185 22.4073 724.793 21.4804 727.22 21.4804H795.573L784.262 40.1592H726.215L723.678 44.338H771.105C774.004 44.338 775.873 45.3669 776.666 47.4406C777.263 48.9723 777.169 50.7239 776.391 52.7034C776.109 53.426 775.747 54.1801 775.292 54.9498L762.889 75.3881C761.129 78.2866 758.577 80.7922 755.207 82.8973C751.869 84.971 748.727 86 745.797 86H679.698L687.184 73.6365C689.643 69.5755 693.711 67.2819 698.456 67.2819H749.064L751.594 63.1503H704.127C701.213 63.1503 699.359 62.1056 698.558 60.0476C697.937 58.5395 698.016 56.8193 698.786 54.8713C699.068 54.1486 699.461 53.3789 699.964 52.5698L713.325 30.5292C714.755 28.1806 716.726 26.1383 719.255 24.3553L719.381 24.261Z" fill="black"/>
</svg>
